# xmcd CD database file
#
# Track frame offsets:
#	187
#	62690
#	92680
#
# Disc length: 2213 seconds
#
# Revision: 0
# Processed by: cddbd v1.4PL0 Copyright (c) Steve Scherf et al.
# Submitted via: CDex 1.50Beta3
#
DISCID=1d08a303
DTITLE=John Coltrane - Coitrane"LIVE"at The VillageVanguard
DYEAR=1961
DGENRE=Jazz
TTITLE0=Spiritual
TTITLE1=Softry,asin aMorning Sunrise
TTITLE2=Chasin' the Trane
EXTD=YEAR: 1961
EXTT0=
EXTT1=
EXTT2=
PLAYORDER=
